<?xml version="1.0" standalone="no"?>
<!DOCTYPE svg PUBLIC "-//W3C//DTD SVG 20010904//EN"
 "http://www.w3.org/TR/2001/REC-SVG-20010904/DTD/svg10.dtd">
<svg version="1.0" xmlns="http://www.w3.org/2000/svg"
 width="236.000000pt" height="236.000000pt" viewBox="0 0 236.000000 236.000000"
 preserveAspectRatio="xMidYMid meet">
<metadata>
Created by potrace 1.14, written by Peter Selinger 2001-2017
</metadata>
<g transform="translate(0.000000,236.000000) scale(0.100000,-0.100000)"
fill="#000000" stroke="none">
<path d="M1110 2226 c-9 -9 -25 -14 -62 -18 -10 -1 -18 -6 -18 -11 0 -5 -7 -7
-15 -3 -8 3 -19 -3 -25 -12 -8 -15 -11 -15 -20 -2 -8 12 -10 12 -10 1 0 -8 -7
-11 -20 -8 -11 3 -20 0 -20 -6 0 -7 -5 -5 -10 3 -6 10 -10 11 -10 3 0 -7 -7
-13 -15 -13 -8 0 -15 -5 -15 -11 0 -5 -4 -8 -9 -4 -5 3 -16 -2 -24 -10 -9 -8
-19 -15 -24 -15 -19 0 -80 -92 -86 -130 -2 -10 -8 -25 -15 -32 -6 -8 -9 -18
-5 -21 3 -4 -2 -9 -11 -13 -9 -3 -14 -10 -11 -14 3 -4 -2 -24 -10 -44 -10 -23
-11 -36 -5 -36 6 0 8 -5 4 -11 -3 -6 -8 -46 -9 -88 -4 -97 -6 -106 -37 -141
-32 -37 -68 -52 -138 -56 -73 -5 -80 -6 -76 -13 5 -8 -16 -25 -34 -29 -8 -2
-18 -8 -21 -14 -3 -5 -10 -9 -15 -9 -19 2 -44 -11 -39 -19 3 -5 -4 -11 -15
-15 -11 -3 -20 -13 -20 -21 0 -7 -7 -22 -17 -33 -9 -11 -18 -34 -20 -52 -2
-18 -7 -35 -11 -38 -20 -15 -18 -226 2 -260 5 -8 4 -16 -4 -21 -10 -6 -9 -9 1
-13 9 -3 9 -6 2 -6 -8 -1 -9 -10 -4 -28 8 -32 7 -71 -3 -80 -3 -3 -1 -12 5
-20 9 -10 8 -13 -4 -13 -16 0 -18 -31 -2 -42 6 -5 6 -8 -1 -8 -7 0 -9 -10 -6
-25 2 -14 8 -22 13 -19 5 3 6 -2 3 -10 -3 -9 -1 -16 6 -16 6 0 9 -4 6 -9 -4
-5 -1 -11 5 -13 14 -5 19 -88 5 -88 -5 0 -6 -3 -3 -6 3 -4 1 -16 -5 -28 -7
-11 -11 -24 -10 -28 1 -5 -7 -8 -19 -8 -15 0 -19 -5 -15 -15 3 -8 2 -14 -2
-14 -37 6 -75 -21 -66 -46 4 -8 10 -12 15 -9 5 3 9 0 9 -5 0 -6 6 -11 13 -11
11 0 51 -30 88 -65 9 -8 20 -15 25 -15 5 0 16 -9 24 -20 8 -11 18 -20 22 -20
4 0 25 -18 47 -40 26 -26 48 -40 65 -40 14 0 26 -4 26 -10 0 -5 6 -10 13 -10
7 0 34 -13 60 -30 26 -16 54 -30 62 -30 8 0 15 -4 15 -8 0 -4 9 -8 20 -9 11
-1 32 -11 46 -22 15 -12 33 -21 40 -21 8 0 14 -4 14 -10 0 -5 7 -10 15 -10 9
0 27 -8 41 -17 17 -10 28 -13 32 -6 4 6 15 9 25 7 9 -1 17 1 17 4 0 4 14 7 30
7 17 1 30 -4 30 -10 0 -5 5 -3 10 5 6 10 10 11 10 3 0 -7 11 -13 25 -13 14 0
25 -4 25 -9 0 -5 14 -7 30 -6 17 1 33 -1 36 -6 3 -5 10 -7 15 -3 5 3 15 2 22
-3 11 -7 32 -9 47 -3 19 7 39 7 35 0 -3 -5 9 -8 26 -8 17 1 33 7 36 14 3 8 9
11 14 8 5 -2 19 0 31 7 17 9 23 9 26 0 3 -9 7 -9 18 0 9 7 14 8 14 1 0 -5 9
-8 20 -5 10 3 18 10 17 16 -1 6 7 11 18 11 11 0 23 5 27 10 4 6 25 11 47 11
22 0 43 4 47 7 3 4 12 4 20 1 8 -3 14 0 14 6 0 6 6 8 13 5 9 -3 26 20 50 68
21 41 37 78 37 84 0 5 9 18 21 27 11 10 18 25 15 33 -3 8 -2 12 4 9 5 -3 16
10 26 30 9 19 21 35 26 35 5 0 7 4 4 9 -4 5 -2 11 3 13 5 1 11 9 13 17 4 17
76 91 89 91 6 0 7 5 4 10 -3 6 1 13 9 16 9 3 16 12 16 20 0 8 4 14 8 14 4 0 8
8 8 18 2 42 16 86 38 120 33 50 111 132 127 132 7 0 10 3 7 6 -4 3 1 14 10 24
34 37 43 50 35 50 -4 0 -2 4 5 9 7 4 14 14 16 22 1 8 9 29 19 48 9 18 14 37
12 42 -3 4 -1 10 5 14 5 3 10 17 10 31 0 13 4 24 8 24 7 0 11 16 14 58 1 6 6
12 11 12 6 0 7 3 4 7 -4 3 -2 12 4 20 8 9 8 13 1 13 -7 0 -8 10 -2 29 6 21 5
31 -3 35 -8 3 -8 5 1 5 10 1 10 6 2 21 -6 11 -8 20 -5 20 3 0 -2 14 -11 31
-10 20 -11 28 -3 24 8 -6 10 -4 3 6 -4 8 -10 23 -11 33 -4 22 -21 46 -34 46
-4 0 -20 5 -36 12 -15 6 -31 11 -35 10 -5 -1 -8 3 -8 8 0 6 -7 10 -15 10 -8 0
-15 5 -15 11 0 5 -4 7 -10 4 -5 -3 -10 -1 -10 4 0 6 -10 11 -22 11 -19 0 -20
2 -8 10 13 9 13 10 0 11 -8 1 -18 1 -22 0 -5 0 -8 6 -8 15 0 8 -4 12 -10 9 -5
-3 -10 -2 -10 3 0 13 -68 44 -80 37 -6 -4 -9 -1 -8 6 2 7 -4 14 -12 14 -40 3
-100 41 -100 65 0 6 -4 8 -10 5 -5 -3 -10 3 -10 14 0 10 -5 21 -11 23 -6 2
-12 27 -13 56 0 29 -5 52 -9 52 -5 0 -5 5 -2 10 3 6 1 10 -5 10 -6 0 -8 5 -5
10 6 9 -8 14 -27 11 -5 0 -8 8 -8 19 0 11 -5 20 -11 20 -5 0 -7 5 -4 10 3 6 1
10 -5 10 -6 0 -9 4 -6 9 8 12 -54 82 -66 75 -4 -3 -8 2 -8 10 0 10 -6 13 -17
9 -11 -4 -14 -3 -9 5 5 8 0 12 -13 12 -12 0 -21 4 -21 9 0 5 -9 12 -20 16 -10
3 -35 22 -54 41 -18 18 -41 34 -49 34 -9 0 -19 5 -22 10 -4 6 -18 10 -33 10
-15 -1 -64 1 -109 3 -48 2 -87 -1 -93 -7z"/>
</g>
</svg>
